<?xml version="1.0" encoding="utf-8"?>
<!-- Uploaded to: SVG Repo, www.svgrepo.com, Generator: SVG Repo Mixer Tools -->
<svg width="246" height="246" fill="none" xmlns="http://www.w3.org/2000/svg">
<g clip-path="url(#clip0_397_3192)">
<g clip-path="url(#clip1_397_3192)">
<g filter="url(#filter0_iii_397_3192)">
<path d="M0 115C0 51.4872 51.4873 0 115 0H127C192.722 0 246 53.2781 246 119V127C246 192.722 192.722 246 127 246H123C55.069 246 0 190.931 0 123V115Z" fill="url(#paint0_radial_397_3192)"/>
</g>
<g filter="url(#filter1_i_397_3192)">
<path d="M101.54 101.5C105.66 101.5 109.081 98.1218 108.197 94.0978C106.794 87.7112 103.591 81.8008 98.8952 77.1048C92.4252 70.6348 83.65 67 74.5 67C65.35 67 56.5748 70.6348 50.1048 77.1048C45.6509 81.5587 42.5406 87.105 41.0346 93.114C39.8974 97.6519 43.7924 101.5 48.4706 101.5C52.8564 101.5 56.2631 97.7812 58.1273 93.8113C59.0089 91.9338 60.215 90.2045 61.7097 88.7097C65.1019 85.3176 69.7027 83.4118 74.5 83.4118C79.2973 83.4118 83.8981 85.3176 87.2903 88.7097C88.5423 89.9618 89.5918 91.3785 90.4178 92.9089C92.7658 97.2597 96.5961 101.5 101.54 101.5Z" fill="#C4C4C4"/>
<path d="M101.54 101.5C105.66 101.5 109.081 98.1218 108.197 94.0978C106.794 87.7112 103.591 81.8008 98.8952 77.1048C92.4252 70.6348 83.65 67 74.5 67C65.35 67 56.5748 70.6348 50.1048 77.1048C45.6509 81.5587 42.5406 87.105 41.0346 93.114C39.8974 97.6519 43.7924 101.5 48.4706 101.5C52.8564 101.5 56.2631 97.7812 58.1273 93.8113C59.0089 91.9338 60.215 90.2045 61.7097 88.7097C65.1019 85.3176 69.7027 83.4118 74.5 83.4118C79.2973 83.4118 83.8981 85.3176 87.2903 88.7097C88.5423 89.9618 89.5918 91.3785 90.4178 92.9089C92.7658 97.2597 96.5961 101.5 101.54 101.5Z" fill="#221725"/>
</g>
<g filter="url(#filter2_i_397_3192)">
<path d="M198.54 101.5C202.66 101.5 206.081 98.1218 205.197 94.0978C203.794 87.7112 200.591 81.8008 195.895 77.1048C189.425 70.6348 180.65 67 171.5 67C162.35 67 153.575 70.6348 147.105 77.1048C142.651 81.5587 139.541 87.105 138.035 93.114C136.897 97.6519 140.792 101.5 145.471 101.5C149.856 101.5 153.263 97.7812 155.127 93.8113C156.009 91.9338 157.215 90.2045 158.71 88.7097C162.102 85.3176 166.703 83.4118 171.5 83.4118C176.297 83.4118 180.898 85.3176 184.29 88.7097C185.542 89.9618 186.592 91.3785 187.418 92.9089C189.766 97.2597 193.596 101.5 198.54 101.5Z" fill="#C4C4C4"/>
<path d="M198.54 101.5C202.66 101.5 206.081 98.1218 205.197 94.0978C203.794 87.7112 200.591 81.8008 195.895 77.1048C189.425 70.6348 180.65 67 171.5 67C162.35 67 153.575 70.6348 147.105 77.1048C142.651 81.5587 139.541 87.105 138.035 93.114C136.897 97.6519 140.792 101.5 145.471 101.5C149.856 101.5 153.263 97.7812 155.127 93.8113C156.009 91.9338 157.215 90.2045 158.71 88.7097C162.102 85.3176 166.703 83.4118 171.5 83.4118C176.297 83.4118 180.898 85.3176 184.29 88.7097C185.542 89.9618 186.592 91.3785 187.418 92.9089C189.766 97.2597 193.596 101.5 198.54 101.5Z" fill="#221725"/>
</g>
<g filter="url(#filter3_i_397_3192)">
<path d="M115 123L126.5 129.5C131.557 132.358 131.557 139.642 126.5 142.5V142.5C121.443 145.358 121.443 152.642 126.5 155.5V155.5C131.557 158.358 131.557 165.642 126.5 168.5L115 175" stroke="#221725" stroke-width="11" stroke-linecap="round" stroke-linejoin="round"/>
</g>
</g>
<g clip-path="url(#clip2_397_3192)">
<g filter="url(#filter4_ii_397_3192)">
<path d="M106.369 0H23.1C10.2484 0 -0.1698 10.4182 -0.1698 23.2698V105.431C-0.1698 111.51 7.16421 114.572 11.4866 110.297L111.181 11.7105C115.53 7.41016 112.485 0 106.369 0Z" fill="#D9D9D9"/>
<path d="M106.369 0H23.1C10.2484 0 -0.1698 10.4182 -0.1698 23.2698V105.431C-0.1698 111.51 7.16421 114.572 11.4866 110.297L111.181 11.7105C115.53 7.41016 112.485 0 106.369 0Z" fill="url(#paint1_linear_397_3192)"/>
</g>
<rect x="52.8777" y="-17.7944" width="13.756" height="108.676" transform="rotate(43.6025 52.8777 -17.7944)" fill="white" fill-opacity="0.77"/>
<rect x="87.7069" y="-13.6882" width="14.11" height="161.163" transform="rotate(43.6025 87.7069 -13.6882)" fill="white" fill-opacity="0.77"/>
</g>
<g filter="url(#filter5_ii_397_3192)">
<path fill-rule="evenodd" clip-rule="evenodd" d="M227.759 122.67C227.628 103.837 212.322 88.5 193.488 88.5H192.098C175.487 88.5 162.021 101.966 162.021 118.577V119C162.021 124.523 166.581 129 172.104 129C177.535 129 182.021 124.597 182.021 119.165C182.021 115.208 185.229 112 189.186 112H195.886C201.759 112 206.521 116.761 206.521 122.634C206.521 129.464 200.984 135 194.155 135H140.273C133.272 135 127.636 140.75 127.776 147.75C127.912 154.555 133.467 160 140.273 160H190.841C211.333 160 227.903 143.161 227.759 122.67Z" fill="#2E75FF"/>
</g>
<rect x="144.521" y="135" width="10" height="25" fill="white" fill-opacity="0.77"/>
<rect x="171.521" y="135" width="10" height="25" fill="white" fill-opacity="0.77"/>
<g filter="url(#filter6_i_397_3192)">
<circle cx="207.904" cy="25" r="17" fill="#2DB0FA"/>
</g>
<g filter="url(#filter7_i_397_3192)">
<circle cx="190.904" cy="206" r="17" fill="#FA2D83"/>
</g>
<g filter="url(#filter8_i_397_3192)">
<circle cx="67.9043" cy="189" r="17" fill="#2DB0FA"/>
</g>
</g>
<defs>
<filter id="filter0_iii_397_3192" x="-11" y="-24" width="278" height="326" filterUnits="userSpaceOnUse" color-interpolation-filters="sRGB">
<feFlood flood-opacity="0" result="BackgroundImageFix"/>
<feBlend mode="normal" in="SourceGraphic" in2="BackgroundImageFix" result="shape"/>
<feColorMatrix in="SourceAlpha" type="matrix" values="0 0 0 0 0 0 0 0 0 0 0 0 0 0 0 0 0 0 127 0" result="hardAlpha"/>
<feMorphology radius="8" operator="erode" in="SourceAlpha" result="effect1_innerShadow_397_3192"/>
<feOffset dx="21" dy="73"/>
<feGaussianBlur stdDeviation="24"/>
<feComposite in2="hardAlpha" operator="arithmetic" k2="-1" k3="1"/>
<feColorMatrix type="matrix" values="0 0 0 0 0.682806 0 0 0 0 0.0652778 0 0 0 0 0.783333 0 0 0 0.14 0"/>
<feBlend mode="normal" in2="shape" result="effect1_innerShadow_397_3192"/>
<feColorMatrix in="SourceAlpha" type="matrix" values="0 0 0 0 0 0 0 0 0 0 0 0 0 0 0 0 0 0 127 0" result="hardAlpha"/>
<feOffset dy="-24"/>
<feGaussianBlur stdDeviation="15.5"/>
<feComposite in2="hardAlpha" operator="arithmetic" k2="-1" k3="1"/>
<feColorMatrix type="matrix" values="0 0 0 0 0.943639 0 0 0 0 0.223611 0 0 0 0 0.958333 0 0 0 0.44 0"/>
<feBlend mode="normal" in2="effect1_innerShadow_397_3192" result="effect2_innerShadow_397_3192"/>
<feColorMatrix in="SourceAlpha" type="matrix" values="0 0 0 0 0 0 0 0 0 0 0 0 0 0 0 0 0 0 127 0" result="hardAlpha"/>
<feOffset dx="-11" dy="30"/>
<feGaussianBlur stdDeviation="15.5"/>
<feComposite in2="hardAlpha" operator="arithmetic" k2="-1" k3="1"/>
<feColorMatrix type="matrix" values="0 0 0 0 1 0 0 0 0 0.766722 0 0 0 0 0.693056 0 0 0 0.68 0"/>
<feBlend mode="normal" in2="effect2_innerShadow_397_3192" result="effect3_innerShadow_397_3192"/>
</filter>
<filter id="filter1_i_397_3192" x="40.8352" y="67" width="67.5018" height="34.5" filterUnits="userSpaceOnUse" color-interpolation-filters="sRGB">
<feFlood flood-opacity="0" result="BackgroundImageFix"/>
<feBlend mode="normal" in="SourceGraphic" in2="BackgroundImageFix" result="shape"/>
<feColorMatrix in="SourceAlpha" type="matrix" values="0 0 0 0 0 0 0 0 0 0 0 0 0 0 0 0 0 0 127 0" result="hardAlpha"/>
<feMorphology radius="26.45" operator="dilate" in="SourceAlpha" result="effect1_innerShadow_397_3192"/>
<feOffset dx="9.2" dy="-7"/>
<feGaussianBlur stdDeviation="10.35"/>
<feComposite in2="hardAlpha" operator="arithmetic" k2="-1" k3="1"/>
<feColorMatrix type="matrix" values="0 0 0 0 0.462111 0 0 0 0 0.203767 0 0 0 0 0.504167 0 0 0 0.35 0"/>
<feBlend mode="normal" in2="shape" result="effect1_innerShadow_397_3192"/>
</filter>
<filter id="filter2_i_397_3192" x="137.835" y="67" width="67.5018" height="34.5" filterUnits="userSpaceOnUse" color-interpolation-filters="sRGB">
<feFlood flood-opacity="0" result="BackgroundImageFix"/>
<feBlend mode="normal" in="SourceGraphic" in2="BackgroundImageFix" result="shape"/>
<feColorMatrix in="SourceAlpha" type="matrix" values="0 0 0 0 0 0 0 0 0 0 0 0 0 0 0 0 0 0 127 0" result="hardAlpha"/>
<feMorphology radius="26.45" operator="dilate" in="SourceAlpha" result="effect1_innerShadow_397_3192"/>
<feOffset dx="9.2" dy="-9"/>
<feGaussianBlur stdDeviation="10.35"/>
<feComposite in2="hardAlpha" operator="arithmetic" k2="-1" k3="1"/>
<feColorMatrix type="matrix" values="0 0 0 0 0.462111 0 0 0 0 0.203767 0 0 0 0 0.504167 0 0 0 0.35 0"/>
<feBlend mode="normal" in2="shape" result="effect1_innerShadow_397_3192"/>
</filter>
<filter id="filter3_i_397_3192" x="109.499" y="117.499" width="26.2935" height="63.002" filterUnits="userSpaceOnUse" color-interpolation-filters="sRGB">
<feFlood flood-opacity="0" result="BackgroundImageFix"/>
<feBlend mode="normal" in="SourceGraphic" in2="BackgroundImageFix" result="shape"/>
<feColorMatrix in="SourceAlpha" type="matrix" values="0 0 0 0 0 0 0 0 0 0 0 0 0 0 0 0 0 0 127 0" result="hardAlpha"/>
<feMorphology radius="26.45" operator="dilate" in="SourceAlpha" result="effect1_innerShadow_397_3192"/>
<feOffset dx="9.2" dy="-9"/>
<feGaussianBlur stdDeviation="10.35"/>
<feComposite in2="hardAlpha" operator="arithmetic" k2="-1" k3="1"/>
<feColorMatrix type="matrix" values="0 0 0 0 0.462111 0 0 0 0 0.203767 0 0 0 0 0.504167 0 0 0 0.35 0"/>
<feBlend mode="normal" in2="shape" result="effect1_innerShadow_397_3192"/>
</filter>
<filter id="filter4_ii_397_3192" x="-12.5735" y="-10.1485" width="125.8" height="126.947" filterUnits="userSpaceOnUse" color-interpolation-filters="sRGB">
<feFlood flood-opacity="0" result="BackgroundImageFix"/>
<feBlend mode="normal" in="SourceGraphic" in2="BackgroundImageFix" result="shape"/>
<feColorMatrix in="SourceAlpha" type="matrix" values="0 0 0 0 0 0 0 0 0 0 0 0 0 0 0 0 0 0 127 0" result="hardAlpha"/>
<feOffset dx="-12.4037" dy="-10.1485"/>
<feGaussianBlur stdDeviation="9.02084"/>
<feComposite in2="hardAlpha" operator="arithmetic" k2="-1" k3="1"/>
<feColorMatrix type="matrix" values="0 0 0 0 1 0 0 0 0 1 0 0 0 0 1 0 0 0 0.25 0"/>
<feBlend mode="normal" in2="shape" result="effect1_innerShadow_397_3192"/>
<feColorMatrix in="SourceAlpha" type="matrix" values="0 0 0 0 0 0 0 0 0 0 0 0 0 0 0 0 0 0 127 0" result="hardAlpha"/>
<feOffset dy="4.51042"/>
<feGaussianBlur stdDeviation="7.89324"/>
<feComposite in2="hardAlpha" operator="arithmetic" k2="-1" k3="1"/>
<feColorMatrix type="matrix" values="0 0 0 0 0.615 0 0 0 0 0.3125 0 0 0 0 1 0 0 0 0.71 0"/>
<feBlend mode="normal" in2="effect1_innerShadow_397_3192" result="effect2_innerShadow_397_3192"/>
</filter>
<filter id="filter5_ii_397_3192" x="125.773" y="82.5" width="101.987" height="83.5" filterUnits="userSpaceOnUse" color-interpolation-filters="sRGB">
<feFlood flood-opacity="0" result="BackgroundImageFix"/>
<feBlend mode="normal" in="SourceGraphic" in2="BackgroundImageFix" result="shape"/>
<feColorMatrix in="SourceAlpha" type="matrix" values="0 0 0 0 0 0 0 0 0 0 0 0 0 0 0 0 0 0 127 0" result="hardAlpha"/>
<feOffset dx="-2" dy="-6"/>
<feGaussianBlur stdDeviation="8.5"/>
<feComposite in2="hardAlpha" operator="arithmetic" k2="-1" k3="1"/>
<feColorMatrix type="matrix" values="0 0 0 0 0.111562 0 0 0 0 0.146767 0 0 0 0 0.991667 0 0 0 0.83 0"/>
<feBlend mode="normal" in2="shape" result="effect1_innerShadow_397_3192"/>
<feColorMatrix in="SourceAlpha" type="matrix" values="0 0 0 0 0 0 0 0 0 0 0 0 0 0 0 0 0 0 127 0" result="hardAlpha"/>
<feOffset dx="-2" dy="6"/>
<feGaussianBlur stdDeviation="6.5"/>
<feComposite in2="hardAlpha" operator="arithmetic" k2="-1" k3="1"/>
<feColorMatrix type="matrix" values="0 0 0 0 1 0 0 0 0 1 0 0 0 0 1 0 0 0 0.6 0"/>
<feBlend mode="normal" in2="effect1_innerShadow_397_3192" result="effect2_innerShadow_397_3192"/>
</filter>
<filter id="filter6_i_397_3192" x="188.904" y="8" width="36" height="40" filterUnits="userSpaceOnUse" color-interpolation-filters="sRGB">
<feFlood flood-opacity="0" result="BackgroundImageFix"/>
<feBlend mode="normal" in="SourceGraphic" in2="BackgroundImageFix" result="shape"/>
<feColorMatrix in="SourceAlpha" type="matrix" values="0 0 0 0 0 0 0 0 0 0 0 0 0 0 0 0 0 0 127 0" result="hardAlpha"/>
<feOffset dx="-2" dy="6"/>
<feGaussianBlur stdDeviation="6.5"/>
<feComposite in2="hardAlpha" operator="arithmetic" k2="-1" k3="1"/>
<feColorMatrix type="matrix" values="0 0 0 0 1 0 0 0 0 1 0 0 0 0 1 0 0 0 0.6 0"/>
<feBlend mode="normal" in2="shape" result="effect1_innerShadow_397_3192"/>
</filter>
<filter id="filter7_i_397_3192" x="171.904" y="189" width="36" height="40" filterUnits="userSpaceOnUse" color-interpolation-filters="sRGB">
<feFlood flood-opacity="0" result="BackgroundImageFix"/>
<feBlend mode="normal" in="SourceGraphic" in2="BackgroundImageFix" result="shape"/>
<feColorMatrix in="SourceAlpha" type="matrix" values="0 0 0 0 0 0 0 0 0 0 0 0 0 0 0 0 0 0 127 0" result="hardAlpha"/>
<feOffset dx="-2" dy="6"/>
<feGaussianBlur stdDeviation="6.5"/>
<feComposite in2="hardAlpha" operator="arithmetic" k2="-1" k3="1"/>
<feColorMatrix type="matrix" values="0 0 0 0 1 0 0 0 0 1 0 0 0 0 1 0 0 0 0.6 0"/>
<feBlend mode="normal" in2="shape" result="effect1_innerShadow_397_3192"/>
</filter>
<filter id="filter8_i_397_3192" x="48.9043" y="172" width="36" height="40" filterUnits="userSpaceOnUse" color-interpolation-filters="sRGB">
<feFlood flood-opacity="0" result="BackgroundImageFix"/>
<feBlend mode="normal" in="SourceGraphic" in2="BackgroundImageFix" result="shape"/>
<feColorMatrix in="SourceAlpha" type="matrix" values="0 0 0 0 0 0 0 0 0 0 0 0 0 0 0 0 0 0 127 0" result="hardAlpha"/>
<feOffset dx="-2" dy="6"/>
<feGaussianBlur stdDeviation="6.5"/>
<feComposite in2="hardAlpha" operator="arithmetic" k2="-1" k3="1"/>
<feColorMatrix type="matrix" values="0 0 0 0 1 0 0 0 0 1 0 0 0 0 1 0 0 0 0.6 0"/>
<feBlend mode="normal" in2="shape" result="effect1_innerShadow_397_3192"/>
</filter>
<radialGradient id="paint0_radial_397_3192" cx="0" cy="0" r="1" gradientUnits="userSpaceOnUse" gradientTransform="translate(109 16) rotate(86.5167) scale(230.426)">
<stop offset="0.576389" stop-color="#FFBB0C"/>
<stop offset="1" stop-color="#FFC907"/>
</radialGradient>
<linearGradient id="paint1_linear_397_3192" x1="61.4267" y1="-23.0142" x2="61.4267" y2="170.103" gradientUnits="userSpaceOnUse">
<stop stop-color="#F129A1"/>
<stop offset="1" stop-color="#FC3131"/>
</linearGradient>
<clipPath id="clip0_397_3192">
<rect width="246" height="246" fill="white"/>
</clipPath>
<clipPath id="clip1_397_3192">
<rect width="246" height="246" fill="white"/>
</clipPath>
<clipPath id="clip2_397_3192">
<rect width="197.071" height="192.529" fill="white"/>
</clipPath>
</defs>
</svg>